<?xml version="1.0" encoding="utf-8"?>
<!-- Generator: Adobe Illustrator 16.0.0, SVG Export Plug-In . SVG Version: 6.00 Build 0)  -->
<!DOCTYPE svg PUBLIC "-//W3C//DTD SVG 1.1//EN" "http://www.w3.org/Graphics/SVG/1.1/DTD/svg11.dtd">
<svg version="1.1" xmlns="http://www.w3.org/2000/svg" xmlns:xlink="http://www.w3.org/1999/xlink" x="0px" y="0px" width="1000px"
	 height="1000px" viewBox="0 0 1000 1000" enable-background="new 0 0 1000 1000" xml:space="preserve">
<g id="Layer_2">
	<rect x="642.078" y="670.958" display="none" fill="#A89486" width="29.688" height="15.333"/>
	<g>
		<rect x="499.853" y="576.051" fill="#998679" width="29.688" height="38.458"/>
		<rect x="499.853" y="575.551" fill="#89796E" width="29.688" height="15.333"/>
		<path fill="#998679" d="M626.415,573.04c0,5.522-4.477,10-10,10H412.978c-5.521,0-10-4.478-10-10V414.103c0-5.523,4.479-10,10-10
			h203.438c5.523,0,10,4.477,10,10V573.04z"/>
		<rect x="416.108" y="417.384" fill="#565656" width="197.947" height="152.375"/>
		<path fill="#998679" d="M560.79,614.509c0,3.037-4.197,5.5-9.375,5.5h-73.438c-5.178,0-9.375-2.463-9.375-5.5l0,0
			c0-3.037,4.197-5.5,9.375-5.5h73.438C556.593,609.009,560.79,611.472,560.79,614.509L560.79,614.509z"/>
	</g>
	<g>
		<rect x="443.056" y="495.571" fill="#FFFFFF" width="143.281" height="51.479"/>
		<rect x="443.056" y="444.384" fill="#FC393E" width="143.281" height="51.188"/>
		<rect x="467.39" y="464.431" fill="none" width="100.5" height="17.732"/>
		<text transform="matrix(1 0 0 1 467.3892 474.623)" fill="#FFFFFF" font-family="'ArialRoundedMTBold'" font-size="14">modal window</text>
		<rect x="449.724" y="502.718" fill="none" width="59.166" height="38.666"/>
		<text transform="matrix(1 0 0 1 449.7231 506.3574)"><tspan x="0" y="0" font-family="'ArialRoundedMTBold'" font-size="5">CSS3 Animations</tspan><tspan x="0" y="7" font-family="'ArialRoundedMTBold'" font-size="5">Includes LESS and </tspan><tspan x="0" y="13" font-family="'ArialRoundedMTBold'" font-size="5">SASS</tspan><tspan x="0" y="20" font-family="'ArialRoundedMTBold'" font-size="5">Support mobile devices</tspan><tspan x="0" y="27" font-family="'ArialRoundedMTBold'" font-size="5">EASY TO USE &amp; </tspan><tspan x="0" y="33" font-family="'ArialRoundedMTBold'" font-size="5">CUSTOMIZE</tspan></text>
		<circle fill="#13D9B4" cx="547.883" cy="518.255" r="7.864"/>
		<circle fill="#FF8829" cx="528.154" cy="518.255" r="7.864"/>
		<circle fill="#F7E93C" cx="567.612" cy="518.255" r="7.863"/>
		<rect x="520.056" y="501.051" fill="none" width="57.334" height="39.333"/>
		<text transform="matrix(1 0 0 1 520.0566 506.875)" font-family="'ArialRoundedMTBold'" font-size="8">Technologies:</text>
	</g>
</g>
<g id="Layer_3">
	<path fill="#B29E89" d="M701.311,610.036c0,5.522-4.477,10-10,10h-82.793c-5.521,0-10-4.478-10-10V501.411c0-5.523,4.479-10,10-10
		h82.793c5.523,0,10,4.477,10,10V610.036z"/>
	<rect x="607.037" y="502.277" fill="#565656" width="85.754" height="100.606"/>
	<g display="none">
		<rect x="753.972" y="621.703" display="inline" fill="#FFFFFF" width="67.446" height="24.233"/>
		<rect x="753.972" y="597.608" display="inline" fill="#FC393E" width="67.446" height="24.095"/>
		<g display="inline">
			
				<rect x="822.381" y="591.789" transform="matrix(0.7071 0.7072 -0.7072 0.7071 661.356 -411.1101)" fill="#FFFFFF" width="8.994" height="1.793"/>
			
				<rect x="822.381" y="591.789" transform="matrix(-0.707 0.7072 -0.7072 -0.707 1830.6366 426.933)" fill="#FFFFFF" width="8.995" height="1.794"/>
		</g>
		<rect x="765.427" y="607.044" display="inline" fill="none" width="47.307" height="8.348"/>
		
			<text transform="matrix(1 0 0 1 765.4268 611.8428)" display="inline" fill="#FFFFFF" font-family="'ArialRoundedMTBold'" font-size="6.5901">modal window</text>
		<rect x="757.58" y="626.01" display="inline" fill="none" width="28.794" height="16.082"/>
		<text transform="matrix(1 0 0 1 757.5801 627.7236)" display="inline"><tspan x="0" y="0" font-family="'ArialRoundedMTBold'" font-size="2.3536">CSS3 Animations</tspan><tspan x="0" y="3.295" font-family="'ArialRoundedMTBold'" font-size="2.3536">Includes LESS and SASS</tspan><tspan x="0" y="6.59" font-family="'ArialRoundedMTBold'" font-size="2.3536">Support mobile devices</tspan><tspan x="0" y="9.885" font-family="'ArialRoundedMTBold'" font-size="2.3536">EASY TO USE &amp; </tspan><tspan x="0" y="12.709" font-family="'ArialRoundedMTBold'" font-size="2.3536">CUSTOMIZE</tspan></text>
		<circle display="inline" fill="#13D9B4" cx="805.199" cy="628.299" r="3.702"/>
		<circle display="inline" fill="#FF8829" cx="795.912" cy="628.299" r="3.702"/>
		<circle display="inline" fill="#F7E93C" cx="814.486" cy="628.299" r="3.702"/>
	</g>
	<circle fill="#998679" cx="649.914" cy="611.495" r="6.62"/>
	<rect x="646.602" y="608.182" fill="#89796E" width="6.625" height="6.626"/>
	<path fill="#89796E" d="M660.953,496.962c0,0.992-0.63,1.797-1.406,1.797h-19.266c-0.776,0-1.406-0.805-1.406-1.797l0,0
		c0-0.992,0.63-1.797,1.406-1.797h19.266C660.323,495.165,660.953,495.97,660.953,496.962L660.953,496.962z"/>
	<g>
		<rect x="613.332" y="557.161" fill="#FFFFFF" width="71.829" height="25.807"/>
		<rect x="613.332" y="531.499" fill="#FC393E" width="71.829" height="25.662"/>
		<rect x="625.529" y="541.55" fill="none" width="50.381" height="8.891"/>
		<text transform="matrix(1 0 0 1 625.5303 546.6592)" fill="#FFFFFF" font-family="'ArialRoundedMTBold'" font-size="7.0184">modal window</text>
		<rect x="616.674" y="560.743" fill="none" width="29.66" height="19.385"/>
		<text transform="matrix(1 0 0 1 616.6748 562.5684)"><tspan x="0" y="0" font-family="'ArialRoundedMTBold'" font-size="2.5066">CSS3 Animations</tspan><tspan x="0" y="3.509" font-family="'ArialRoundedMTBold'" font-size="2.5066">Includes LESS and </tspan><tspan x="0" y="6.517" font-family="'ArialRoundedMTBold'" font-size="2.5066">SASS</tspan><tspan x="0" y="10.026" font-family="'ArialRoundedMTBold'" font-size="2.5066">Support mobile devices</tspan><tspan x="0" y="13.535" font-family="'ArialRoundedMTBold'" font-size="2.5066">EASY TO USE &amp; </tspan><tspan x="0" y="16.543" font-family="'ArialRoundedMTBold'" font-size="2.5066">CUSTOMIZE</tspan></text>
		<circle fill="#13D9B4" cx="665.883" cy="568.532" r="3.943"/>
		<circle fill="#FF8829" cx="655.993" cy="568.532" r="3.942"/>
		<circle fill="#F7E93C" cx="675.774" cy="568.532" r="3.943"/>
		<rect x="651.932" y="559.909" fill="none" width="28.744" height="19.717"/>
		<text transform="matrix(1 0 0 1 651.9326 562.8291)" font-family="'ArialRoundedMTBold'" font-size="4.0105">Technologies:</text>
	</g>
</g>
<g id="Layer_4">
	<path fill="#B29E89" d="M433.404,610.196c0,5.522-4.477,10-10,10h-41.396c-5.521,0-10-4.478-10-10v-80.625c0-5.523,4.479-10,10-10
		h41.396c5.523,0,10,4.477,10,10V610.196z"/>
	<rect x="377.187" y="529.134" fill="#565656" width="51.038" height="76.741"/>
	<g display="none">
		<rect x="522.293" y="639.193" display="inline" fill="#FFFFFF" width="40.142" height="14.424"/>
		<rect x="522.293" y="624.854" display="inline" fill="#FC393E" width="40.142" height="14.34"/>
		<g display="inline">
			
				<rect x="563.008" y="621.39" transform="matrix(0.707 0.7072 -0.7072 0.707 605.5599 -217.8375)" fill="#FFFFFF" width="5.354" height="1.067"/>
			
				<rect x="563.008" y="621.39" transform="matrix(-0.707 0.7072 -0.7072 -0.707 1405.4561 661.5815)" fill="#FFFFFF" width="5.354" height="1.067"/>
		</g>
		<rect x="529.111" y="630.468" display="inline" fill="none" width="28.154" height="4.969"/>
		
			<text transform="matrix(1 0 0 1 529.1113 633.3232)" display="inline" fill="#FFFFFF" font-family="'ArialRoundedMTBold'" font-size="3.9222">modal window</text>
		<rect x="524.439" y="641.756" display="inline" fill="none" width="17.139" height="9.572"/>
		<text transform="matrix(1 0 0 1 524.4404 642.7754)" display="inline"><tspan x="0" y="0" font-family="'ArialRoundedMTBold'" font-size="1.4008">CSS3 Animations</tspan><tspan x="0" y="1.961" font-family="'ArialRoundedMTBold'" font-size="1.4008">Includes LESS and SASS</tspan><tspan x="0" y="3.923" font-family="'ArialRoundedMTBold'" font-size="1.4008">Support mobile devices</tspan><tspan x="0" y="5.884" font-family="'ArialRoundedMTBold'" font-size="1.4008">EASY TO USE &amp; </tspan><tspan x="0" y="7.564" font-family="'ArialRoundedMTBold'" font-size="1.4008">CUSTOMIZE</tspan></text>
		<circle display="inline" fill="#13D9B4" cx="552.782" cy="643.119" r="2.204"/>
		<circle display="inline" fill="#FF8829" cx="547.254" cy="643.119" r="2.204"/>
		<circle display="inline" fill="#F7E93C" cx="558.309" cy="643.119" r="2.203"/>
	</g>
	<path fill="#89796E" d="M412.478,523.535c0,0.9-1.023,1.63-2.286,1.63H395.22c-1.263,0-2.286-0.729-2.286-1.63l0,0
		c0-0.9,1.023-1.63,2.286-1.63h14.972C411.454,521.905,412.478,522.635,412.478,523.535L412.478,523.535z"/>
	<circle fill="#998679" cx="402.706" cy="612.69" r="5.258"/>
	<rect x="400.287" y="610.421" fill="#89796E" width="4.838" height="4.838"/>
	<g>
		<rect x="381.356" y="570.613" fill="#FFFFFF" width="42.812" height="15.382"/>
		<rect x="381.356" y="555.319" fill="#FC393E" width="42.812" height="15.294"/>
		<g display="none">
			
				<rect x="421.779" y="551.626" transform="matrix(0.707 0.7072 -0.7072 0.707 514.9166 -138.5164)" display="inline" fill="#FFFFFF" width="5.71" height="1.138"/>
			
				<rect x="421.779" y="551.625" transform="matrix(-0.7071 0.7071 -0.7071 -0.7071 1115.3556 642.3933)" display="inline" fill="#FFFFFF" width="5.709" height="1.138"/>
		</g>
		<rect x="388.627" y="561.31" fill="none" width="30.028" height="5.298"/>
		<text transform="matrix(1 0 0 1 388.6279 564.3555)" fill="#FFFFFF" font-family="'ArialRoundedMTBold'" font-size="4.183">modal window</text>
		<rect x="383.349" y="572.749" fill="none" width="17.679" height="11.553"/>
		<text transform="matrix(1 0 0 1 383.3506 573.8379)"><tspan x="0" y="0" font-family="'ArialRoundedMTBold'" font-size="1.4939">CSS3 Animations</tspan><tspan x="0" y="2.091" font-family="'ArialRoundedMTBold'" font-size="1.4939">Includes LESS and </tspan><tspan x="0" y="3.884" font-family="'ArialRoundedMTBold'" font-size="1.4939">SASS</tspan><tspan x="0" y="5.976" font-family="'ArialRoundedMTBold'" font-size="1.4939">Support mobile devices</tspan><tspan x="0" y="8.067" font-family="'ArialRoundedMTBold'" font-size="1.4939">EASY TO USE &amp; </tspan><tspan x="0" y="9.859" font-family="'ArialRoundedMTBold'" font-size="1.4939">CUSTOMIZE</tspan></text>
		<circle fill="#13D9B4" cx="412.678" cy="577.392" r="2.35"/>
		<circle fill="#FF8829" cx="406.783" cy="577.392" r="2.35"/>
		<circle fill="#F7E93C" cx="418.572" cy="577.392" r="2.35"/>
		<rect x="404.363" y="572.251" fill="none" width="17.131" height="11.753"/>
		<text transform="matrix(1 0 0 1 404.3643 573.9922)" font-family="'ArialRoundedMTBold'" font-size="2.3903">Technologies:</text>
	</g>
</g>
</svg>
